<?xml version="1.0" encoding="UTF-8" standalone="no"?>
<!DOCTYPE svg PUBLIC "-//W3C//DTD SVG 1.1//EN" "http://www.w3.org/Graphics/SVG/1.1/DTD/svg11.dtd">
<svg width="100%" height="100%" viewBox="0 0 16 16" version="1.1" xmlns="http://www.w3.org/2000/svg" xmlns:xlink="http://www.w3.org/1999/xlink" xml:space="preserve" xmlns:serif="http://www.serif.com/" style="fill-rule:evenodd;clip-rule:evenodd;stroke-linejoin:round;stroke-miterlimit:2;">
    <path d="M7,1L9,1L9,15L7,15L2,10L1.001,10.001L1.001,5.999L2,6L7,1ZM6,6L6,10C6,10.158 6,11 7,11C8,11 8,10.158 8,10L8,6.063C8,5.906 8,5 7,5C6,5 6,5.842 6,6Z" style="fill:rgb(255,85,85);"/>
    <g transform="matrix(2,0,0,1.42857,-3,-3.42857)">
        <path d="M6.5,5.375C6.5,5.099 6.5,4.5 7,4.5C7.5,4.5 7.5,5.099 7.5,5.375L7.5,10.625C7.5,10.901 7.5,11.5 7,11.5C6.5,11.5 6.5,10.901 6.5,10.625L6.5,5.375Z" style="fill:rgb(255,85,85);"/>
    </g>
    <g transform="matrix(2,0,0,2,0,-8)">
        <path d="M6.5,5C6.5,4.724 6.724,4.5 7,4.5C7.276,4.5 7.5,4.724 7.5,5L7.5,11C7.5,11.276 7.276,11.5 7,11.5C6.724,11.5 6.5,11.276 6.5,11L6.5,5Z" style="fill:rgb(255,85,85);"/>
    </g>
</svg>
