<?xml version="1.0" encoding="UTF-8" standalone="no"?>
<!DOCTYPE svg PUBLIC "-//W3C//DTD SVG 1.1//EN" "http://www.w3.org/Graphics/SVG/1.1/DTD/svg11.dtd">
<svg width="100%" height="100%" viewBox="0 0 16 16" version="1.1" xmlns="http://www.w3.org/2000/svg" xmlns:xlink="http://www.w3.org/1999/xlink" xml:space="preserve" xmlns:serif="http://www.serif.com/" style="fill-rule:evenodd;clip-rule:evenodd;stroke-linecap:round;stroke-linejoin:round;stroke-miterlimit:1.5;">
    <path d="M13.9,11.946L14,12L12,15L4,15L2,12L2.095,11.945C2.224,11.981 2.36,12 2.5,12C3.153,12 3.708,11.582 3.915,11L4.085,11C4.292,11.582 4.847,12 5.5,12C5.92,12 6.299,11.827 6.571,11.549C6.935,11.827 7.441,12 8,12C8.559,12 9.065,11.827 9.429,11.549C9.701,11.827 10.08,12 10.5,12C11.153,12 11.708,11.582 11.915,11L12.085,11C12.292,11.582 12.847,12 13.5,12C13.638,12 13.772,11.981 13.9,11.946Z" style="fill:none;stroke:rgb(235,235,235);stroke-width:1.28px;"/>
    <path d="M3.915,11C3.708,11.582 3.153,12 2.5,12C1.672,12 1,11.328 1,10.5C1,9.847 1.418,9.292 2,9.085L2,9C2,9 3.802,5.981 7,6C7.649,6.004 8,6 9,6C11.713,6 14,9 14,9L14,9.085C14.582,9.292 15,9.847 15,10.5C15,11.328 14.328,12 13.5,12C12.847,12 12.292,11.582 12.085,11L11.915,11C11.708,11.582 11.153,12 10.5,12C10.08,12 9.701,11.827 9.429,11.549C9.065,11.827 8.559,12 8,12C7.441,12 6.935,11.827 6.571,11.549C6.299,11.827 5.92,12 5.5,12C4.847,12 4.292,11.582 4.085,11L3.915,11Z" style="fill:none;stroke:rgb(235,235,235);stroke-width:1.75px;"/>
    <path d="M6,4C5.508,3.754 5.4,3.237 5.463,2.824C5.543,2.303 6.044,1.947 6,1.471C5.944,0.869 5.791,0.816 5.485,0.559" style="fill:none;stroke:rgb(235,235,235);stroke-width:1px;"/>
    <g transform="matrix(1,0,0,1,2.1164,0)">
        <path d="M6,4C5.508,3.754 5.4,3.237 5.463,2.824C5.543,2.303 6.044,1.947 6,1.471C5.944,0.869 5.791,0.816 5.485,0.559" style="fill:none;stroke:rgb(235,235,235);stroke-width:1px;"/>
    </g>
    <g transform="matrix(1,0,0,1,4.2328,0)">
        <path d="M6,4C5.508,3.754 5.4,3.237 5.463,2.824C5.543,2.303 6.044,1.947 6,1.471C5.944,0.869 5.791,0.816 5.485,0.559" style="fill:none;stroke:rgb(235,235,235);stroke-width:1px;"/>
    </g>
    <path d="M5.524,9.621C5.766,9.004 5.987,8.034 6.318,7.792" style="fill:none;stroke:rgb(235,235,235);stroke-width:1px;"/>
    <g transform="matrix(-1,0,0,1,15.8318,0)">
        <path d="M5.524,9.621C5.766,9.004 5.987,8.034 6.318,7.792" style="fill:none;stroke:rgb(235,235,235);stroke-width:1px;"/>
    </g>
    <path d="M8.015,9.974L8.015,7.968" style="fill:none;stroke:rgb(235,235,235);stroke-width:1px;"/>
</svg>
