<?xml version="1.0" encoding="UTF-8" standalone="no"?>
<!DOCTYPE svg PUBLIC "-//W3C//DTD SVG 1.1//EN" "http://www.w3.org/Graphics/SVG/1.1/DTD/svg11.dtd">
<svg width="100%" height="100%" viewBox="0 0 64 64" version="1.1" xmlns="http://www.w3.org/2000/svg" xmlns:xlink="http://www.w3.org/1999/xlink" xml:space="preserve" xmlns:serif="http://www.serif.com/" style="fill-rule:evenodd;clip-rule:evenodd;stroke-linejoin:round;stroke-miterlimit:2;">
    <g transform="matrix(1.01961,0,0,1,-0.117647,0)">
        <path d="M47.192,62L6,62C3.833,62 2.077,60.209 2.077,58L2.077,6C2.077,3.791 3.833,2 6,2L57,2C59.167,2 60.923,3.791 60.923,6L60.923,48L53.077,48L53.077,10L9.923,10L9.923,54L47.192,54L47.192,62Z" style="fill:white;"/>
        <path d="M47.192,64L6,64C2.75,64 0.115,61.314 0.115,58L0.115,6C0.115,2.686 2.75,0 6,0L57,0C60.25,-0 62.885,2.686 62.885,6L62.885,48C62.885,49.105 62.006,50 60.923,50L53.077,50C51.994,50 51.115,49.105 51.115,48L51.115,12L11.885,12L11.885,52L47.192,52C48.276,52 49.154,52.895 49.154,54L49.154,62C49.154,63.105 48.276,64 47.192,64ZM47.192,62L47.192,54L9.923,54L9.923,10L53.077,10L53.077,48L60.923,48L60.923,6C60.923,3.791 59.167,2 57,2L6,2C3.833,2 2.077,3.791 2.077,6L2.077,58C2.077,60.209 3.833,62 6,62L47.192,62Z"/>
    </g>
    <g transform="matrix(1,0,0,0.982821,0,0.927684)">
        <ellipse cx="58" cy="58.07" rx="4" ry="4.07" style="fill:white;"/>
        <path d="M58,51.965C61.311,51.965 64,54.701 64,58.07C64,61.439 61.311,64.175 58,64.175C54.689,64.175 52,61.439 52,58.07C52,54.701 54.689,51.965 58,51.965ZM58,54C55.792,54 54,55.824 54,58.07C54,60.316 55.792,62.14 58,62.14C60.208,62.14 62,60.316 62,58.07C62,55.824 60.208,54 58,54Z"/>
    </g>
    <g transform="matrix(0.856755,0,0,0.856755,4.92426,4.92426)">
        <path d="M33.069,50.278C35.702,42.138 42.138,35.702 50.278,33.069L50.278,41.926C46.666,43.723 43.723,46.666 41.926,50.278L33.069,50.278Z" style="fill:white;"/>
        <path d="M30.848,49.559C33.711,40.709 40.709,33.711 49.559,30.848C50.27,30.618 51.047,30.742 51.651,31.181C52.255,31.62 52.612,32.322 52.612,33.069L52.612,41.926C52.612,42.812 52.111,43.621 51.318,44.016C48.16,45.587 45.587,48.16 44.016,51.318C43.621,52.111 42.812,52.612 41.926,52.612L33.069,52.612C32.322,52.612 31.62,52.255 31.181,51.651C30.742,51.047 30.618,50.27 30.848,49.559ZM33.069,50.278L41.926,50.278C43.723,46.666 46.666,43.723 50.278,41.926L50.278,33.069C42.138,35.702 35.702,42.138 33.069,50.278Z"/>
    </g>
    <g transform="matrix(1.61884,0,0,1.61884,-39.2152,-39.2152)">
        <path d="M35.838,53.875C37.68,44.82 44.82,37.68 53.875,35.838L53.875,40.584C47.378,42.259 42.259,47.378 40.584,53.875L35.838,53.875Z" style="fill:white;"/>
        <path d="M34.628,53.629C36.567,44.089 44.089,36.567 53.629,34.628C53.992,34.554 54.37,34.647 54.657,34.882C54.944,35.116 55.11,35.468 55.11,35.838L55.11,40.584C55.11,41.147 54.729,41.64 54.183,41.78C48.12,43.343 43.343,48.12 41.78,54.183C41.64,54.729 41.147,55.11 40.584,55.11L35.838,55.11C35.468,55.11 35.116,54.944 34.882,54.657C34.647,54.37 34.554,53.992 34.628,53.629ZM35.838,53.875L40.584,53.875C42.259,47.378 47.378,42.259 53.875,40.584L53.875,35.838C44.82,37.68 37.68,44.82 35.838,53.875Z"/>
    </g>
</svg>
