<?xml version="1.0" encoding="UTF-8" standalone="no"?>
<!DOCTYPE svg PUBLIC "-//W3C//DTD SVG 1.1//EN" "http://www.w3.org/Graphics/SVG/1.1/DTD/svg11.dtd">
<svg width="100%" height="100%" viewBox="0 0 16 16" version="1.1" xmlns="http://www.w3.org/2000/svg" xmlns:xlink="http://www.w3.org/1999/xlink" xml:space="preserve" xmlns:serif="http://www.serif.com/" style="fill-rule:evenodd;clip-rule:evenodd;stroke-linejoin:round;stroke-miterlimit:2;">
    <g transform="matrix(1,0,0,1,-1,0)">
        <path d="M9,15L4,13C3.605,12.902 3.144,12.462 3,12L3,4C2.942,3.623 3.393,3.164 4,3L9,1L14,3C14.514,3.17 14.963,3.616 15,4L15,12C14.922,12.397 14,13 14,13L9,15ZM8,4L5,5L5,11L8,12L8,4ZM10,12L13,11L13,5L10,4L10,12Z" style="fill:rgb(255,85,85);"/>
    </g>
</svg>
