<?xml version="1.0" encoding="UTF-8" standalone="no"?><!DOCTYPE svg PUBLIC "-//W3C//DTD SVG 1.1//EN" "http://www.w3.org/Graphics/SVG/1.1/DTD/svg11.dtd"><svg width="100%" height="100%" viewBox="0 0 16 16" version="1.1" xmlns="http://www.w3.org/2000/svg" xmlns:xlink="http://www.w3.org/1999/xlink" xml:space="preserve" xmlns:serif="http://www.serif.com/" style="fill-rule:evenodd;clip-rule:evenodd;stroke-linejoin:round;stroke-miterlimit:2;"><path d="M7,1l2,0l0,14l-2,0l-5,-5l-0.999,0.001l0,-4.002l0.999,0.001l5,-5Zm-1,5l0,4c0,0.158 0,1 1,1c1,0 1,-0.842 1,-1l0,-3.937c0,-0.157 0,-1.063 -1,-1.063c-1,0 -1,0.842 -1,1Z" style="fill:#f55;"/><g><path d="M10,4.25c0,-0.394 0,-1.25 1,-1.25c1,-0 1,0.856 1,1.25l0,7.5c0,0.394 0,1.25 -1,1.25c-1,-0 -1,-0.856 -1,-1.25l0,-7.5Z" style="fill:#f55;"/></g><g><path d="M13,2c0,-0.552 0.448,-1 1,-1c0.552,0 1,0.448 1,1l0,12c0,0.552 -0.448,1 -1,1c-0.552,0 -1,-0.448 -1,-1l0,-12Z" style="fill:#f55;"/></g></svg>