<?xml version="1.0" encoding="UTF-8" standalone="no"?><!DOCTYPE svg PUBLIC "-//W3C//DTD SVG 1.1//EN" "http://www.w3.org/Graphics/SVG/1.1/DTD/svg11.dtd"><svg width="100%" height="100%" viewBox="0 0 16 16" version="1.1" xmlns="http://www.w3.org/2000/svg" xmlns:xlink="http://www.w3.org/1999/xlink" xml:space="preserve" xmlns:serif="http://www.serif.com/" style="fill-rule:evenodd;clip-rule:evenodd;stroke-linejoin:round;stroke-miterlimit:2;"><path d="M5,1c1.059,0.392 2,0.96 2,2l0,2c0,0.605 -1.527,0.825 -2,1l0,8c-0,0.56 -0.338,1 -1,1c-0.662,-0 -1,-0.44 -1,-1l0,-8c-0.511,-0.189 -2,-0.345 -2,-1l-0,-2c-0,-1.04 0.941,-1.608 2,-2l0,2c-0,0.56 0.338,1 1,1c0.662,0 1,-0.44 1,-1l0,-2Z" style="fill:#ebebeb;"/><path d="M11,15c-1.059,-0.392 -2,-0.96 -2,-2l-0,-2c-0,-0.605 1.527,-0.825 2,-1l0,-8c0,-0.56 0.338,-1 1,-1c0.662,0 1,0.44 1,1l-0,8c0.511,0.189 2,0.345 2,1l-0,2c-0,1.04 -0.941,1.608 -2,2l-0,-2c0,-0.56 -0.338,-1 -1,-1c-0.662,-0 -1,0.44 -1,1l-0,2Z" style="fill:#ebebeb;"/></svg>